<svg version="1.1" id="Layer_1" xmlns="http://www.w3.org/2000/svg" x="0" y="0" viewBox="0 0 2700 783.8" style="enable-background:new 0 0 2700 783.8" xml:space="preserve"><path d="M116.3 592.8V314.6h347.4v-16.3H116.3V44.5h369.3V28.2H100v580.9h388.9v-16.3H116.3zm685.8-401.9-144 189.6-140.8-189.6h-21.2l152.1 201.8-166.7 216.4H501l157-204.2 157.8 204.2h20.3L668.7 392.7l152.9-201.8h-19.5zm83 561.4V492h1.6c9.8 38 29 68.5 57.8 91.5 28.7 23 65.4 34.6 109.8 34.6 28.7 0 54.2-5.8 76.5-17.5 22.2-11.7 40.8-27.5 55.7-47.6 14.9-20.1 26.3-43.4 34.2-70 7.9-26.6 11.8-54.5 11.8-83.8 0-31.5-4.1-60.5-12.2-87.1s-19.9-49.6-35.4-69.2c-15.5-19.5-34.2-34.7-56.1-45.6-22-10.8-46.8-16.3-74.4-16.3-21.2 0-40.8 3.1-59 9.4-18.2 6.2-34.3 15-48.4 26.4-14.2 11.5-26.5 25.1-36.6 40.3-10.3 15.5-18.2 32.4-23.6 50.8h-1.6v-117h-16.3v561.3h16.2v.1zm169.2-149.7c-51 0-91.9-17.5-122.8-52.5-30.9-35-46.4-85.3-46.4-150.9 0-27.1 3.8-52.9 11.4-77.3 7.6-24.4 18.6-45.8 32.9-64.3 14.4-18.4 32.1-33.1 53.3-43.9 21.2-10.8 45-16.3 71.6-16.3 27.1 0 50.8 5.4 71.2 16.3 20.3 10.8 37.2 25.6 50.4 44.3 13.3 18.7 23.3 40.1 30.1 64.3 6.8 24.1 10.2 49.8 10.2 76.9 0 24.4-3.1 48.7-9.4 72.8-6.2 24.1-15.9 45.8-28.9 65.1-13 19.2-29.7 35-50 47.2-20.3 12.2-44.9 18.3-73.6 18.3zm267.6 6.5V372.4c0-22.8 3.3-45 9.8-66.7s16.5-40.8 30.1-57.4c13.6-16.5 30.8-29.6 51.7-39.1 20.9-9.5 45.7-13.4 74.4-11.8v-16.3c-25-.5-46.8 2.2-65.5 8.1-18.7 6-34.8 14.1-48.4 24.4-13.6 10.3-24.4 22.4-32.5 36.2s-14.2 28.8-17.9 44.3h-1.6V190.9h-16.3v418.2h16.2zm186.3-205.8H1858c1.1-28.7-1.8-56.4-8.5-83-6.8-26.6-17.6-50.2-32.5-70.8s-34.2-37.2-57.8-49.6-51.7-18.7-84.2-18.7c-23.3 0-46.1 4.9-68.3 14.6-22.2 9.8-41.8 24-58.6 42.7-16.8 18.7-30.4 41.6-40.7 68.8-10.3 27.1-15.5 58-15.5 92.7 0 30.9 3.5 59.8 10.6 86.6s17.9 50.2 32.5 70c14.6 19.8 33.5 35.1 56.5 46 23 10.8 50.8 16 83.4 15.5 47.7 0 87.9-13.4 120.4-40.3s51.8-64.7 57.8-113.5h-16.3c-7.1 46.1-25.1 80.7-54.1 103.7-29 23.1-65.5 34.6-109.4 34.6-29.8 0-55-5.2-75.7-15.5-20.6-10.3-37.4-24.4-50.4-42.3s-22.6-38.9-28.9-63.1c-6.1-24.1-9.5-50.2-10.1-78.4zm333.6-16.3h-333.5c1.6-29.3 7-55.6 16.3-78.9 9.2-23.3 21.3-43.3 36.2-59.8 14.9-16.5 32.3-29.2 52.1-37.8 19.8-8.7 41.1-13 63.9-13 27.1 0 51 5 71.6 15.1 20.6 10 37.8 23.7 51.7 41.1 13.8 17.4 24.3 37.6 31.3 60.6 6.9 22.9 10.4 47.2 10.4 72.7zm353.9-72.4h16.3c0-46.6-13.6-80.5-40.7-101.7s-64-31.7-110.6-31.7c-26 0-48 3.3-65.9 9.8s-32.5 14.9-43.9 25.2-19.5 21.7-24.4 34.2c-4.9 12.5-7.3 24.4-7.3 35.8 0 22.8 4.1 40.9 12.2 54.5s20.9 24.1 38.2 31.7c11.9 5.4 25.5 10.3 40.7 14.6 15.2 4.3 32.8 8.9 52.9 13.8 17.9 4.3 35.5 8.7 52.9 13s32.7 10.2 46 17.5 24.1 16.7 32.5 28.1 12.6 26.3 12.6 44.7c0 17.9-4.2 33.1-12.6 45.6-8.3 12.4-19.3 22.8-32.1 30.5-13 7.9-27.5 13.6-43.5 17.1s-31.6 5.3-46.8 5.3c-49.4 0-87.2-11-113.5-32.9-26.3-22-39.5-56.5-39.5-103.7h-16.3c0 52.6 14.2 91.1 42.7 115.5s70.6 36.6 126.5 36.6c17.9 0 35.9-2 54.1-6.1 18.2-4.1 34.4-10.7 48.8-19.9 14.2-9.1 26.2-21.3 35-35.8 9-14.6 13.4-32.5 13.4-53.7 0-20.1-3.9-36.3-11.8-48.8s-18.2-22.8-30.9-30.9-27.1-14.5-43.1-19.1c-16.1-4.6-32.2-9.1-48.4-13.4-19.9-5.2-39.8-10.4-59.8-15.5-17.1-4.3-32.9-9.5-47.6-15.5-14.1-6-25.4-14.5-33.8-25.6s-12.6-27-12.6-47.6c0-3.8 1.1-10.6 3.3-20.3 2.2-9.8 7.3-19.7 15.5-29.7 8.1-10 20.6-19 37.4-26.8 16.8-7.9 39.9-11.8 69.2-11.8 20.1 0 38.4 2.2 54.9 6.5s30.8 11.3 42.7 20.7c11.9 9.5 21.2 21.6 27.7 36.2 6.3 14.5 9.6 32.4 9.6 53.6zm376.6 0h16.3c0-46.6-13.6-80.5-40.7-101.7s-64-31.7-110.6-31.7c-26 0-48 3.3-65.9 9.8s-32.5 14.9-43.9 25.2-19.5 21.7-24.4 34.2c-4.9 12.5-7.3 24.4-7.3 35.8 0 22.8 4.1 40.9 12.2 54.5 8.1 13.6 20.9 24.1 38.2 31.7 11.9 5.4 25.5 10.3 40.7 14.6 15.2 4.3 32.8 8.9 52.9 13.8 17.9 4.3 35.5 8.7 52.9 13s32.7 10.2 46 17.5 24.1 16.7 32.5 28.1 12.6 26.3 12.6 44.7c0 17.9-4.2 33.1-12.6 45.6-8.3 12.4-19.3 22.8-32.1 30.5-13 7.9-27.5 13.6-43.5 17.1s-31.6 5.3-46.8 5.3c-49.4 0-87.2-11-113.5-32.9-26.3-22-39.5-56.5-39.5-103.7h-16.3c0 52.6 14.2 91.1 42.7 115.5s70.6 36.6 126.5 36.6c17.9 0 35.9-2 54.1-6.1 18.2-4.1 34.4-10.7 48.8-19.9 14.2-9.1 26.2-21.3 35-35.8 9-14.6 13.4-32.5 13.4-53.7 0-20.1-3.9-36.3-11.8-48.8s-18.2-22.8-30.9-30.9-27.1-14.5-43.1-19.1c-16.1-4.6-32.2-9.1-48.4-13.4-19.9-5.2-39.8-10.4-59.8-15.5-17.1-4.3-32.9-9.5-47.6-15.5-14.1-6-25.4-14.5-33.8-25.6-8.4-11.1-12.6-27-12.6-47.6 0-3.8 1.1-10.6 3.3-20.3 2.2-9.8 7.3-19.7 15.5-29.7 8.1-10 20.6-19 37.4-26.8 16.8-7.9 39.9-11.8 69.2-11.8 20.1 0 38.4 2.2 54.9 6.5s30.8 11.3 42.7 20.7 21.2 21.6 27.7 36.2c6.4 14.5 9.6 32.4 9.6 53.6z" style="fill:#222"/><path d="M116.3 592.8V314.6h347.4v-16.3H116.3V44.5h369.3V28.2H100v580.9h388.9v-16.3H116.3zm685.8-401.9-144 189.6-140.8-189.6h-21.2l152.1 201.8-166.7 216.4H501l157-204.2 157.8 204.2h20.3L668.7 392.7l152.9-201.8h-19.5zm83 561.4V492h1.6c9.8 38 29 68.5 57.8 91.5 28.7 23 65.4 34.6 109.8 34.6 28.7 0 54.2-5.8 76.5-17.5 22.2-11.7 40.8-27.5 55.7-47.6 14.9-20.1 26.3-43.4 34.2-70 7.9-26.6 11.8-54.5 11.8-83.8 0-31.5-4.1-60.5-12.2-87.1s-19.9-49.6-35.4-69.2c-15.5-19.5-34.2-34.7-56.1-45.6-22-10.8-46.8-16.3-74.4-16.3-21.2 0-40.8 3.1-59 9.4-18.2 6.2-34.3 15-48.4 26.4-14.2 11.5-26.5 25.1-36.6 40.3-10.3 15.5-18.2 32.4-23.6 50.8h-1.6v-117h-16.3v561.3h16.2v.1zm169.2-149.7c-51 0-91.9-17.5-122.8-52.5-30.9-35-46.4-85.3-46.4-150.9 0-27.1 3.8-52.9 11.4-77.3 7.6-24.4 18.6-45.8 32.9-64.3 14.4-18.4 32.1-33.1 53.3-43.9 21.2-10.8 45-16.3 71.6-16.3 27.1 0 50.8 5.4 71.2 16.3 20.3 10.8 37.2 25.6 50.4 44.3 13.3 18.7 23.3 40.1 30.1 64.3 6.8 24.1 10.2 49.8 10.2 76.9 0 24.4-3.1 48.7-9.4 72.8-6.2 24.1-15.9 45.8-28.9 65.1-13 19.2-29.7 35-50 47.2-20.3 12.2-44.9 18.3-73.6 18.3zm267.6 6.5V372.4c0-22.8 3.3-45 9.8-66.7s16.5-40.8 30.1-57.4c13.6-16.5 30.8-29.6 51.7-39.1 20.9-9.5 45.7-13.4 74.4-11.8v-16.3c-25-.5-46.8 2.2-65.5 8.1-18.7 6-34.8 14.1-48.4 24.4-13.6 10.3-24.4 22.4-32.5 36.2s-14.2 28.8-17.9 44.3h-1.6V190.9h-16.3v418.2h16.2zm186.3-205.8H1858c1.1-28.7-1.8-56.4-8.5-83-6.8-26.6-17.6-50.2-32.5-70.8s-34.2-37.2-57.8-49.6-51.7-18.7-84.2-18.7c-23.3 0-46.1 4.9-68.3 14.6-22.2 9.8-41.8 24-58.6 42.7-16.8 18.7-30.4 41.6-40.7 68.8-10.3 27.1-15.5 58-15.5 92.7 0 30.9 3.5 59.8 10.6 86.6s17.9 50.2 32.5 70c14.6 19.8 33.5 35.1 56.5 46 23 10.8 50.8 16 83.4 15.5 47.7 0 87.9-13.4 120.4-40.3s51.8-64.7 57.8-113.5h-16.3c-7.1 46.1-25.1 80.7-54.1 103.7-29 23.1-65.5 34.6-109.4 34.6-29.8 0-55-5.2-75.7-15.5-20.6-10.3-37.4-24.4-50.4-42.3s-22.6-38.9-28.9-63.1c-6.1-24.1-9.5-50.2-10.1-78.4zm333.6-16.3h-333.5c1.6-29.3 7-55.6 16.3-78.9 9.2-23.3 21.3-43.3 36.2-59.8 14.9-16.5 32.3-29.2 52.1-37.8 19.8-8.7 41.1-13 63.9-13 27.1 0 51 5 71.6 15.1 20.6 10 37.8 23.7 51.7 41.1 13.8 17.4 24.3 37.6 31.3 60.6 6.9 22.9 10.4 47.2 10.4 72.7zm353.9-72.4h16.3c0-46.6-13.6-80.5-40.7-101.7s-64-31.7-110.6-31.7c-26 0-48 3.3-65.9 9.8s-32.5 14.9-43.9 25.2-19.5 21.7-24.4 34.2c-4.9 12.5-7.3 24.4-7.3 35.8 0 22.8 4.1 40.9 12.2 54.5s20.9 24.1 38.2 31.7c11.9 5.4 25.5 10.3 40.7 14.6 15.2 4.3 32.8 8.9 52.9 13.8 17.9 4.3 35.5 8.7 52.9 13s32.7 10.2 46 17.5 24.1 16.7 32.5 28.1 12.6 26.3 12.6 44.7c0 17.9-4.2 33.1-12.6 45.6-8.3 12.4-19.3 22.8-32.1 30.5-13 7.9-27.5 13.6-43.5 17.1s-31.6 5.3-46.8 5.3c-49.4 0-87.2-11-113.5-32.9-26.3-22-39.5-56.5-39.5-103.7h-16.3c0 52.6 14.2 91.1 42.7 115.5s70.6 36.6 126.5 36.6c17.9 0 35.9-2 54.1-6.1 18.2-4.1 34.4-10.7 48.8-19.9 14.2-9.1 26.2-21.3 35-35.8 9-14.6 13.4-32.5 13.4-53.7 0-20.1-3.9-36.3-11.8-48.8s-18.2-22.8-30.9-30.9-27.1-14.5-43.1-19.1c-16.1-4.6-32.2-9.1-48.4-13.4-19.9-5.2-39.8-10.4-59.8-15.5-17.1-4.3-32.9-9.5-47.6-15.5-14.1-6-25.4-14.5-33.8-25.6s-12.6-27-12.6-47.6c0-3.8 1.1-10.6 3.3-20.3 2.2-9.8 7.3-19.7 15.5-29.7 8.1-10 20.6-19 37.4-26.8 16.8-7.9 39.9-11.8 69.2-11.8 20.1 0 38.4 2.2 54.9 6.5s30.8 11.3 42.7 20.7c11.9 9.5 21.2 21.6 27.7 36.2 6.3 14.5 9.6 32.4 9.6 53.6zm376.6 0h16.3c0-46.6-13.6-80.5-40.7-101.7s-64-31.7-110.6-31.7c-26 0-48 3.3-65.9 9.8s-32.5 14.9-43.9 25.2-19.5 21.7-24.4 34.2c-4.9 12.5-7.3 24.4-7.3 35.8 0 22.8 4.1 40.9 12.2 54.5 8.1 13.6 20.9 24.1 38.2 31.7 11.9 5.4 25.5 10.3 40.7 14.6 15.2 4.3 32.8 8.9 52.9 13.8 17.9 4.3 35.5 8.7 52.9 13s32.7 10.2 46 17.5 24.1 16.7 32.5 28.1 12.6 26.3 12.6 44.7c0 17.9-4.2 33.1-12.6 45.6-8.3 12.4-19.3 22.8-32.1 30.5-13 7.9-27.5 13.6-43.5 17.1s-31.6 5.3-46.8 5.3c-49.4 0-87.2-11-113.5-32.9-26.3-22-39.5-56.5-39.5-103.7h-16.3c0 52.6 14.2 91.1 42.7 115.5s70.6 36.6 126.5 36.6c17.9 0 35.9-2 54.1-6.1 18.2-4.1 34.4-10.7 48.8-19.9 14.2-9.1 26.2-21.3 35-35.8 9-14.6 13.4-32.5 13.4-53.7 0-20.1-3.9-36.3-11.8-48.8s-18.2-22.8-30.9-30.9-27.1-14.5-43.1-19.1c-16.1-4.6-32.2-9.1-48.4-13.4-19.9-5.2-39.8-10.4-59.8-15.5-17.1-4.3-32.9-9.5-47.6-15.5-14.1-6-25.4-14.5-33.8-25.6-8.4-11.1-12.6-27-12.6-47.6 0-3.8 1.1-10.6 3.3-20.3 2.2-9.8 7.3-19.7 15.5-29.7 8.1-10 20.6-19 37.4-26.8 16.8-7.9 39.9-11.8 69.2-11.8 20.1 0 38.4 2.2 54.9 6.5s30.8 11.3 42.7 20.7 21.2 21.6 27.7 36.2c6.4 14.5 9.6 32.4 9.6 53.6z" style="fill:none;stroke:#fff;stroke-width:60px;stroke-miterlimit:10"/><path d="M116.3 592.8V314.6h347.4v-16.3H116.3V44.5h369.3V28.2H100v580.9h388.9v-16.3H116.3zm685.8-401.9-144 189.6-140.8-189.6h-21.2l152.1 201.8-166.7 216.4H501l157-204.2 157.8 204.2h20.3L668.7 392.7l152.9-201.8h-19.5zm83 561.4V492h1.6c9.8 38 29 68.5 57.8 91.5 28.7 23 65.4 34.6 109.8 34.6 28.7 0 54.2-5.8 76.5-17.5 22.2-11.7 40.8-27.5 55.7-47.6 14.9-20.1 26.3-43.4 34.2-70 7.9-26.6 11.8-54.5 11.8-83.8 0-31.5-4.1-60.5-12.2-87.1s-19.9-49.6-35.4-69.2c-15.5-19.5-34.2-34.7-56.1-45.6-22-10.8-46.8-16.3-74.4-16.3-21.2 0-40.8 3.1-59 9.4-18.2 6.2-34.3 15-48.4 26.4-14.2 11.5-26.5 25.1-36.6 40.3-10.3 15.5-18.2 32.4-23.6 50.8h-1.6v-117h-16.3v561.3h16.2v.1zm169.2-149.7c-51 0-91.9-17.5-122.8-52.5-30.9-35-46.4-85.3-46.4-150.9 0-27.1 3.8-52.9 11.4-77.3 7.6-24.4 18.6-45.8 32.9-64.3 14.4-18.4 32.1-33.1 53.3-43.9 21.2-10.8 45-16.3 71.6-16.3 27.1 0 50.8 5.4 71.2 16.3 20.3 10.8 37.2 25.6 50.4 44.3 13.3 18.7 23.3 40.1 30.1 64.3 6.8 24.1 10.2 49.8 10.2 76.9 0 24.4-3.1 48.7-9.4 72.8-6.2 24.1-15.9 45.8-28.9 65.1-13 19.2-29.7 35-50 47.2-20.3 12.2-44.9 18.3-73.6 18.3zm267.6 6.5V372.4c0-22.8 3.3-45 9.8-66.7s16.5-40.8 30.1-57.4c13.6-16.5 30.8-29.6 51.7-39.1 20.9-9.5 45.7-13.4 74.4-11.8v-16.3c-25-.5-46.8 2.2-65.5 8.1-18.7 6-34.8 14.1-48.4 24.4-13.6 10.3-24.4 22.4-32.5 36.2s-14.2 28.8-17.9 44.3h-1.6V190.9h-16.3v418.2h16.2zm186.3-205.8H1858c1.1-28.7-1.8-56.4-8.5-83-6.8-26.6-17.6-50.2-32.5-70.8s-34.2-37.2-57.8-49.6-51.7-18.7-84.2-18.7c-23.3 0-46.1 4.9-68.3 14.6-22.2 9.8-41.8 24-58.6 42.7-16.8 18.7-30.4 41.6-40.7 68.8-10.3 27.1-15.5 58-15.5 92.7 0 30.9 3.5 59.8 10.6 86.6s17.9 50.2 32.5 70c14.6 19.8 33.5 35.1 56.5 46 23 10.8 50.8 16 83.4 15.5 47.7 0 87.9-13.4 120.4-40.3s51.8-64.7 57.8-113.5h-16.3c-7.1 46.1-25.1 80.7-54.1 103.7-29 23.1-65.5 34.6-109.4 34.6-29.8 0-55-5.2-75.7-15.5-20.6-10.3-37.4-24.4-50.4-42.3s-22.6-38.9-28.9-63.1c-6.1-24.1-9.5-50.2-10.1-78.4zm333.6-16.3h-333.5c1.6-29.3 7-55.6 16.3-78.9 9.2-23.3 21.3-43.3 36.2-59.8 14.9-16.5 32.3-29.2 52.1-37.8 19.8-8.7 41.1-13 63.9-13 27.1 0 51 5 71.6 15.1 20.6 10 37.8 23.7 51.7 41.1 13.8 17.4 24.3 37.6 31.3 60.6 6.9 22.9 10.4 47.2 10.4 72.7zm353.9-72.4h16.3c0-46.6-13.6-80.5-40.7-101.7s-64-31.7-110.6-31.7c-26 0-48 3.3-65.9 9.8s-32.5 14.9-43.9 25.2-19.5 21.7-24.4 34.2c-4.9 12.5-7.3 24.4-7.3 35.8 0 22.8 4.1 40.9 12.2 54.5s20.9 24.1 38.2 31.7c11.9 5.4 25.5 10.3 40.7 14.6 15.2 4.3 32.8 8.9 52.9 13.8 17.9 4.3 35.5 8.7 52.9 13s32.7 10.2 46 17.5 24.1 16.7 32.5 28.1 12.6 26.3 12.6 44.7c0 17.9-4.2 33.1-12.6 45.6-8.3 12.4-19.3 22.8-32.1 30.5-13 7.9-27.5 13.6-43.5 17.1s-31.6 5.3-46.8 5.3c-49.4 0-87.2-11-113.5-32.9-26.3-22-39.5-56.5-39.5-103.7h-16.3c0 52.6 14.2 91.1 42.7 115.5s70.6 36.6 126.5 36.6c17.9 0 35.9-2 54.1-6.1 18.2-4.1 34.4-10.7 48.8-19.9 14.2-9.1 26.2-21.3 35-35.8 9-14.6 13.4-32.5 13.4-53.7 0-20.1-3.9-36.3-11.8-48.8s-18.2-22.8-30.9-30.9-27.1-14.5-43.1-19.1c-16.1-4.6-32.2-9.1-48.4-13.4-19.9-5.2-39.8-10.4-59.8-15.5-17.1-4.3-32.9-9.5-47.6-15.5-14.1-6-25.4-14.5-33.8-25.6s-12.6-27-12.6-47.6c0-3.8 1.1-10.6 3.3-20.3 2.2-9.8 7.3-19.7 15.5-29.7 8.1-10 20.6-19 37.4-26.8 16.8-7.9 39.9-11.8 69.2-11.8 20.1 0 38.4 2.2 54.9 6.5s30.8 11.3 42.7 20.7c11.9 9.5 21.2 21.6 27.7 36.2 6.3 14.5 9.6 32.4 9.6 53.6zm376.6 0h16.3c0-46.6-13.6-80.5-40.7-101.7s-64-31.7-110.6-31.7c-26 0-48 3.3-65.9 9.8s-32.5 14.9-43.9 25.2-19.5 21.7-24.4 34.2c-4.9 12.5-7.3 24.4-7.3 35.8 0 22.8 4.1 40.9 12.2 54.5 8.1 13.6 20.9 24.1 38.2 31.7 11.9 5.4 25.5 10.3 40.7 14.6 15.2 4.3 32.8 8.9 52.9 13.8 17.9 4.3 35.5 8.7 52.9 13s32.7 10.2 46 17.5 24.1 16.7 32.5 28.1 12.6 26.3 12.6 44.7c0 17.9-4.2 33.1-12.6 45.6-8.3 12.4-19.3 22.8-32.1 30.5-13 7.9-27.5 13.6-43.5 17.1s-31.6 5.3-46.8 5.3c-49.4 0-87.2-11-113.5-32.9-26.3-22-39.5-56.5-39.5-103.7h-16.3c0 52.6 14.2 91.1 42.7 115.5s70.6 36.6 126.5 36.6c17.9 0 35.9-2 54.1-6.1 18.2-4.1 34.4-10.7 48.8-19.9 14.2-9.1 26.2-21.3 35-35.8 9-14.6 13.4-32.5 13.4-53.7 0-20.1-3.9-36.3-11.8-48.8s-18.2-22.8-30.9-30.9-27.1-14.5-43.1-19.1c-16.1-4.6-32.2-9.1-48.4-13.4-19.9-5.2-39.8-10.4-59.8-15.5-17.1-4.3-32.9-9.5-47.6-15.5-14.1-6-25.4-14.5-33.8-25.6-8.4-11.1-12.6-27-12.6-47.6 0-3.8 1.1-10.6 3.3-20.3 2.2-9.8 7.3-19.7 15.5-29.7 8.1-10 20.6-19 37.4-26.8 16.8-7.9 39.9-11.8 69.2-11.8 20.1 0 38.4 2.2 54.9 6.5s30.8 11.3 42.7 20.7 21.2 21.6 27.7 36.2c6.4 14.5 9.6 32.4 9.6 53.6z" style="fill:none;stroke:#222;stroke-width:35px;stroke-miterlimit:10"/></svg>